<svg xmlns="http://www.w3.org/2000/svg" version="1.1" xmlns:xlink="http://www.w3.org/1999/xlink" xmlns:svgjs="http://svgjs.dev/svgjs" width="128" height="128" viewBox="0 0 128 128"><g transform="matrix(0.8046875,0,0,0.8046875,12.454230219980559,5.47196320564516)"><svg viewBox="0 0 136 155" data-background-color="#ffffff" preserveAspectRatio="xMidYMid meet" height="145" width="128" xmlns="http://www.w3.org/2000/svg" xmlns:xlink="http://www.w3.org/1999/xlink"><g id="tight-bounds" transform="matrix(1,0,0,1,0.06043388429750962,0.25)"><svg viewBox="0 0 135.87913223140498 154.5" height="154.5" width="135.87913223140498"><g><svg viewBox="0 0 135.87913223140498 154.5" height="154.5" width="135.87913223140498"><g><svg viewBox="0 0 135.87913223140498 154.5" height="154.5" width="135.87913223140498"><g id="textblocktransform"><svg viewBox="0 0 135.87913223140498 154.5" height="154.5" width="135.87913223140498" id="textblock"><g><svg viewBox="0 0 135.87913223140498 154.5" height="154.5" width="135.87913223140498"><g transform="matrix(1,0,0,1,0,0)"><svg width="135.87913223140498" viewBox="2.15 -34.99 31.18 35.45" height="154.5" data-palette-color="#000000"><path d="M32.32-5.79L32.32-5.79Q33.33-5.79 33.33-4.66L33.33-4.66Q33.33-3.74 31.91-2.81L31.91-2.81Q29.27-1.07 27.47-0.54L27.47-0.54Q24.07 0.46 20.34 0.46 16.6 0.46 13.15-0.87 9.69-2.2 7.25-4.59L7.25-4.59Q2.15-9.62 2.15-17.58L2.15-17.58Q2.15-21.41 3.59-24.62 5.03-27.83 7.57-30.13L7.57-30.13Q12.94-34.99 21.07-34.99L21.07-34.99Q25.63-34.99 29.1-33.42L29.1-33.42Q32.79-31.79 32.79-30.64L32.79-30.64Q32.79-30.18 32.48-29.83 32.18-29.49 31.79-29.49L31.79-29.49Q31.01-29.49 30.37-30.19 29.74-30.88 28.65-31.45 27.56-32.01 26.27-32.42L26.27-32.42Q23.63-33.23 21.47-33.23 19.31-33.23 17.9-32.93L17.9-32.93 17.9-1.64Q19.6-1.34 20.92-1.34 22.24-1.34 23.61-1.51 24.98-1.68 26.29-2.08L26.29-2.08Q29.25-2.95 30.74-4.66L30.74-4.66Q31.27-5.3 31.59-5.54 31.91-5.79 32.32-5.79Z" opacity="1" transform="matrix(1,0,0,1,0,0)" fill="#000000" class="wordmark-text-0" data-fill-palette-color="primary" id="text-0"></path></svg></g></svg></g></svg></g></svg></g></svg></g><defs></defs></svg><rect width="135.87913223140498" height="154.5" fill="none" stroke="none" visibility="hidden"></rect></g></svg></g></svg>